# xmcd
#
# Track frame offsets: 
#        150
#        14999
#        31842
#        42639
#        58075
#        69814
#        86086
#
# Disc length: 1335 seconds
#
# Revision: 0
# Processed by: cddbd v1.5.2PL0 Copyright (c) Steve Scherf et al.
# Submitted via: ExactAudioCopy v1.0b1
#
DISCID=5d053507
DTITLE=Miss Marcy and Her Texas Sugar Daddies - Marcy and Her Texas Sugar 
DTITLE=Daddies
DYEAR=2006
DGENRE=Blues
TTITLE0=Sugar Daddy
TTITLE1=You Got My Man
TTITLE2=Restraining Order
TTITLE3=Down Hearted Blues
TTITLE4=Thinking It Over
TTITLE5=I Don't Want Your Money
TTITLE6=Why Don't You Do Right? 
EXTD=
EXTT0=
EXTT1=
EXTT2=
EXTT3=
EXTT4=
EXTT5=
EXTT6=
PLAYORDER=
